<svg xmlns="http://www.w3.org/2000/svg" viewBox="0 0 32 32">
  <rect width="32" height="32" rx="6" fill="#0d0b08"/>
  <g transform="translate(8.7, 2.5) scale(0.225)">
    <path fill="#a31616"
      d="M35 0 L37 8.5 L33 8.5 Z
         M29.8 4.5 L33.5 9 L31.5 10.5 Z
         M40.2 4.5 L38.5 10.5 L36.5 9 Z
         M31 7.5 L39 7.5 L37.5 12 L32.5 12 Z
         M32.5 9 L37.5 9 L37.5 108 L35 118 L32.5 108 Z
         M17 10 L0.5 24 L0.5 29 L38 60 L40.5 53.5 L8.5 27 Z
         M53 10 L61.5 27 L29.5 53.5 L32 60 L69.5 29 L69.5 24 Z"/>
    <path fill="#a31616" fill-rule="evenodd"
      d="M35 47 L69.5 84 L35 118 L0.5 84 Z
         M35 60 L58 84 L35 106 L12 84 Z"/>
  </g>
</svg>
